<svg width="64" height="64" viewBox="0 0 64 64" fill="none" xmlns="http://www.w3.org/2000/svg">
<g clip-path="url(#clip0_55_150)">
<path d="M56.3312 35.1685C56.4677 34.1445 56.536 33.0864 56.536 31.96C56.536 30.8677 56.4677 29.7755 56.2971 28.7515L63.2261 23.3584C63.8405 22.8805 64.0112 21.9589 63.6357 21.2763L57.0821 9.94399C56.6725 9.19305 55.8192 8.95412 55.0683 9.19305L46.9104 12.4699C45.2037 11.1728 43.3947 10.0805 41.3808 9.26132L40.152 0.591452C40.0155 -0.227748 39.3328 -0.808014 38.5136 -0.808014H25.4064C24.5872 -0.808014 23.9387 -0.227748 23.8021 0.591452L22.5733 9.26132C20.5595 10.0805 18.7163 11.2069 17.0437 12.4699L8.88588 9.19305C8.13494 8.91999 7.28161 9.19305 6.87201 9.94399L0.352545 21.2763C-0.0570551 21.9931 0.0794778 22.8805 0.762145 23.3584L7.69121 28.7515C7.52054 29.7755 7.38401 30.9019 7.38401 31.96C7.38401 33.0181 7.45228 34.1445 7.62294 35.1685L0.693878 40.5616C0.0794779 41.0395 -0.0911884 41.9611 0.284278 42.6437L6.83788 53.976C7.24748 54.7269 8.10081 54.9659 8.85174 54.7269L17.0096 51.4501C18.7163 52.7472 20.5253 53.8395 22.5392 54.6587L23.768 63.3285C23.9387 64.1477 24.5872 64.728 25.4064 64.728H38.5136C39.3328 64.728 40.0155 64.1477 40.1179 63.3285L41.3467 54.6587C43.3605 53.8395 45.2037 52.7472 46.8763 51.4501L55.0341 54.7269C55.7851 55 56.6384 54.7269 57.048 53.976L63.6016 42.6437C64.0112 41.8928 63.8405 41.0395 63.192 40.5616L56.3312 35.1685ZM31.96 44.248C25.2016 44.248 19.672 38.7184 19.672 31.96C19.672 25.2016 25.2016 19.672 31.96 19.672C38.7184 19.672 44.248 25.2016 44.248 31.96C44.248 38.7184 38.7184 44.248 31.96 44.248Z" fill="black"/>
</g>
<defs>
<clipPath id="clip0_55_150">
<rect width="64" height="64" fill="white"/>
</clipPath>
</defs>
</svg>
